<?xml version="1.0" encoding="UTF-8" standalone="no"?>
<!DOCTYPE svg PUBLIC "-//W3C//DTD SVG 1.1//EN"
 "http://www.w3.org/Graphics/SVG/1.1/DTD/svg11.dtd">
<!-- Generated by graphviz version 2.46.1 (0)
 -->
<!-- Title: snakemake_dag Pages: 1 -->
<svg width="1188pt" height="620pt"
 viewBox="0.00 0.00 1187.56 620.00" xmlns="http://www.w3.org/2000/svg" xmlns:xlink="http://www.w3.org/1999/xlink">
<g id="graph0" class="graph" transform="scale(1 1) rotate(0) translate(4 616)">
<title>snakemake_dag</title>
<polygon fill="white" stroke="transparent" points="-4,4 -4,-616 1183.56,-616 1183.56,4 -4,4"/>
<!-- 0 -->
<g id="node1" class="node">
<title>0</title>
<path fill="none" stroke="#566bd8" stroke-width="2" d="M730,-36C730,-36 700,-36 700,-36 694,-36 688,-30 688,-24 688,-24 688,-12 688,-12 688,-6 694,0 700,0 700,0 730,0 730,0 736,0 742,-6 742,-12 742,-12 742,-24 742,-24 742,-30 736,-36 730,-36"/>
<text text-anchor="middle" x="715" y="-15.5" font-family="sans" font-size="10.00">all</text>
</g>
<!-- 1 -->
<g id="node2" class="node">
<title>1</title>
<path fill="none" stroke="#d87d56" stroke-width="2" d="M604.5,-108C604.5,-108 523.5,-108 523.5,-108 517.5,-108 511.5,-102 511.5,-96 511.5,-96 511.5,-84 511.5,-84 511.5,-78 517.5,-72 523.5,-72 523.5,-72 604.5,-72 604.5,-72 610.5,-72 616.5,-78 616.5,-84 616.5,-84 616.5,-96 616.5,-96 616.5,-102 610.5,-108 604.5,-108"/>
<text text-anchor="middle" x="564" y="-87.5" font-family="sans" font-size="10.00">summarise_idxstats</text>
</g>
<!-- 1&#45;&gt;0 -->
<g id="edge2" class="edge">
<title>1&#45;&gt;0</title>
<path fill="none" stroke="grey" stroke-width="2" d="M600.94,-71.88C624.57,-60.92 655.1,-46.77 678.63,-35.86"/>
<polygon fill="grey" stroke="grey" stroke-width="2" points="680.31,-38.94 687.91,-31.56 677.37,-32.59 680.31,-38.94"/>
</g>
<!-- 2 -->
<g id="node3" class="node">
<title>2</title>
<path fill="none" stroke="#d8ac56" stroke-width="2" d="M664.5,-252C664.5,-252 499.5,-252 499.5,-252 493.5,-252 487.5,-246 487.5,-240 487.5,-240 487.5,-228 487.5,-228 487.5,-222 493.5,-216 499.5,-216 499.5,-216 664.5,-216 664.5,-216 670.5,-216 676.5,-222 676.5,-228 676.5,-228 676.5,-240 676.5,-240 676.5,-246 670.5,-252 664.5,-252"/>
<text text-anchor="middle" x="582" y="-231.5" font-family="sans" font-size="10.00">combine_fullg_idxstats_into_single_file</text>
</g>
<!-- 2&#45;&gt;1 -->
<g id="edge8" class="edge">
<title>2&#45;&gt;1</title>
<path fill="none" stroke="grey" stroke-width="2" d="M562.96,-215.84C553.82,-206.3 543.83,-193.62 539,-180 531.67,-159.32 539.29,-135.35 547.99,-117.5"/>
<polygon fill="grey" stroke="grey" stroke-width="2" points="551.29,-118.75 552.85,-108.27 545.09,-115.49 551.29,-118.75"/>
</g>
<!-- 3 -->
<g id="node4" class="node">
<title>3</title>
<path fill="none" stroke="#c6d856" stroke-width="2" d="M702,-396C702,-396 558,-396 558,-396 552,-396 546,-390 546,-384 546,-384 546,-372 546,-372 546,-366 552,-360 558,-360 558,-360 702,-360 702,-360 708,-360 714,-366 714,-372 714,-372 714,-384 714,-384 714,-390 708,-396 702,-396"/>
<text text-anchor="middle" x="630" y="-375.5" font-family="sans" font-size="10.00">extract_reads_from_full_genomes</text>
</g>
<!-- 3&#45;&gt;2 -->
<g id="edge10" class="edge">
<title>3&#45;&gt;2</title>
<path fill="none" stroke="grey" stroke-width="2" d="M627.85,-359.86C625.22,-341.62 619.96,-312.14 611,-288 607.6,-278.86 602.85,-269.36 598.17,-260.98"/>
<polygon fill="grey" stroke="grey" stroke-width="2" points="601.04,-258.95 593,-252.06 594.99,-262.47 601.04,-258.95"/>
</g>
<!-- 12 -->
<g id="node13" class="node">
<title>12</title>
<path fill="none" stroke="#d89556" stroke-width="2" d="M589.5,-324C589.5,-324 406.5,-324 406.5,-324 400.5,-324 394.5,-318 394.5,-312 394.5,-312 394.5,-300 394.5,-300 394.5,-294 400.5,-288 406.5,-288 406.5,-288 589.5,-288 589.5,-288 595.5,-288 601.5,-294 601.5,-300 601.5,-300 601.5,-312 601.5,-312 601.5,-318 595.5,-324 589.5,-324"/>
<text text-anchor="middle" x="498" y="-303.5" font-family="sans" font-size="10.00">flashed_fastqs_from_fullg_extracted_bams</text>
</g>
<!-- 3&#45;&gt;12 -->
<g id="edge22" class="edge">
<title>3&#45;&gt;12</title>
<path fill="none" stroke="grey" stroke-width="2" d="M597.71,-359.88C580.13,-350.55 558.19,-338.92 539.37,-328.94"/>
<polygon fill="grey" stroke="grey" stroke-width="2" points="540.89,-325.78 530.41,-324.19 537.61,-331.97 540.89,-325.78"/>
</g>
<!-- 16 -->
<g id="node17" class="node">
<title>16</title>
<path fill="none" stroke="#56d8b1" stroke-width="2" d="M1063.5,-324C1063.5,-324 908.5,-324 908.5,-324 902.5,-324 896.5,-318 896.5,-312 896.5,-312 896.5,-300 896.5,-300 896.5,-294 902.5,-288 908.5,-288 908.5,-288 1063.5,-288 1063.5,-288 1069.5,-288 1075.5,-294 1075.5,-300 1075.5,-300 1075.5,-312 1075.5,-312 1075.5,-318 1069.5,-324 1063.5,-324"/>
<text text-anchor="middle" x="986" y="-303.5" font-family="sans" font-size="10.00">call_fullg_marker_sets_with_bcftools</text>
</g>
<!-- 3&#45;&gt;16 -->
<g id="edge27" class="edge">
<title>3&#45;&gt;16</title>
<path fill="none" stroke="grey" stroke-width="2" d="M714.37,-360.41C766.92,-350.08 834.7,-336.75 889.4,-325.99"/>
<polygon fill="grey" stroke="grey" stroke-width="2" points="890.32,-329.38 899.45,-324.02 888.97,-322.51 890.32,-329.38"/>
</g>
<!-- 4 -->
<g id="node5" class="node">
<title>4</title>
<path fill="none" stroke="#61d856" stroke-width="2" d="M673,-468C673,-468 587,-468 587,-468 581,-468 575,-462 575,-456 575,-456 575,-444 575,-444 575,-438 581,-432 587,-432 587,-432 673,-432 673,-432 679,-432 685,-438 685,-444 685,-444 685,-456 685,-456 685,-462 679,-468 673,-468"/>
<text text-anchor="middle" x="630" y="-447.5" font-family="sans" font-size="10.00">map_to_full_genome</text>
</g>
<!-- 4&#45;&gt;3 -->
<g id="edge11" class="edge">
<title>4&#45;&gt;3</title>
<path fill="none" stroke="grey" stroke-width="2" d="M630,-431.7C630,-423.98 630,-414.71 630,-406.11"/>
<polygon fill="grey" stroke="grey" stroke-width="2" points="633.5,-406.1 630,-396.1 626.5,-406.1 633.5,-406.1"/>
</g>
<!-- 5 -->
<g id="node6" class="node">
<title>5</title>
<path fill="none" stroke="#78d856" stroke-width="2" d="M588.5,-612C588.5,-612 511.5,-612 511.5,-612 505.5,-612 499.5,-606 499.5,-600 499.5,-600 499.5,-588 499.5,-588 499.5,-582 505.5,-576 511.5,-576 511.5,-576 588.5,-576 588.5,-576 594.5,-576 600.5,-582 600.5,-588 600.5,-588 600.5,-600 600.5,-600 600.5,-606 594.5,-612 588.5,-612"/>
<text text-anchor="middle" x="550" y="-591.5" font-family="sans" font-size="10.00">download_genome</text>
</g>
<!-- 5&#45;&gt;4 -->
<g id="edge14" class="edge">
<title>5&#45;&gt;4</title>
<path fill="none" stroke="grey" stroke-width="2" d="M550.48,-575.77C551.69,-556.94 555.76,-526.45 569,-504 575.64,-492.75 585.51,-482.67 595.4,-474.4"/>
<polygon fill="grey" stroke="grey" stroke-width="2" points="597.6,-477.12 603.26,-468.17 593.25,-471.64 597.6,-477.12"/>
</g>
<!-- 6 -->
<g id="node7" class="node">
<title>6</title>
<path fill="none" stroke="#88d856" stroke-width="2" d="M669.5,-540C669.5,-540 590.5,-540 590.5,-540 584.5,-540 578.5,-534 578.5,-528 578.5,-528 578.5,-516 578.5,-516 578.5,-510 584.5,-504 590.5,-504 590.5,-504 669.5,-504 669.5,-504 675.5,-504 681.5,-510 681.5,-516 681.5,-516 681.5,-528 681.5,-528 681.5,-534 675.5,-540 669.5,-540"/>
<text text-anchor="middle" x="630" y="-519.5" font-family="sans" font-size="10.00">bwt_index_genome</text>
</g>
<!-- 5&#45;&gt;6 -->
<g id="edge15" class="edge">
<title>5&#45;&gt;6</title>
<path fill="none" stroke="grey" stroke-width="2" d="M569.78,-575.7C579.75,-566.97 592.01,-556.24 602.86,-546.75"/>
<polygon fill="grey" stroke="grey" stroke-width="2" points="605.23,-549.32 610.45,-540.1 600.62,-544.06 605.23,-549.32"/>
</g>
<!-- 10 -->
<g id="node11" class="node">
<title>10</title>
<path fill="none" stroke="#d8bc56" stroke-width="2" d="M427,-468C427,-468 325,-468 325,-468 319,-468 313,-462 313,-456 313,-456 313,-444 313,-444 313,-438 319,-432 325,-432 325,-432 427,-432 427,-432 433,-432 439,-438 439,-444 439,-444 439,-456 439,-456 439,-462 433,-468 427,-468"/>
<text text-anchor="middle" x="376" y="-447.5" font-family="sans" font-size="10.00">make_thinned_genomes</text>
</g>
<!-- 5&#45;&gt;10 -->
<g id="edge19" class="edge">
<title>5&#45;&gt;10</title>
<path fill="none" stroke="grey" stroke-width="2" d="M535.41,-575.67C518.98,-556.75 490.9,-526.19 463,-504 448.9,-492.79 432.25,-482.1 417.31,-473.31"/>
<polygon fill="grey" stroke="grey" stroke-width="2" points="418.67,-470.05 408.26,-468.09 415.17,-476.12 418.67,-470.05"/>
</g>
<!-- 11 -->
<g id="node12" class="node">
<title>11</title>
<path fill="none" stroke="#56d873" stroke-width="2" d="M442.5,-540C442.5,-540 387.5,-540 387.5,-540 381.5,-540 375.5,-534 375.5,-528 375.5,-528 375.5,-516 375.5,-516 375.5,-510 381.5,-504 387.5,-504 387.5,-504 442.5,-504 442.5,-504 448.5,-504 454.5,-510 454.5,-516 454.5,-516 454.5,-528 454.5,-528 454.5,-534 448.5,-540 442.5,-540"/>
<text text-anchor="middle" x="415" y="-519.5" font-family="sans" font-size="10.00">faidx_genome</text>
</g>
<!-- 5&#45;&gt;11 -->
<g id="edge21" class="edge">
<title>5&#45;&gt;11</title>
<path fill="none" stroke="grey" stroke-width="2" d="M516.98,-575.88C498.92,-566.51 476.35,-554.81 457.05,-544.8"/>
<polygon fill="grey" stroke="grey" stroke-width="2" points="458.64,-541.69 448.15,-540.19 455.42,-547.9 458.64,-541.69"/>
</g>
<!-- 5&#45;&gt;16 -->
<g id="edge26" class="edge">
<title>5&#45;&gt;16</title>
<path fill="none" stroke="grey" stroke-width="2" d="M600.64,-589.34C680.47,-582.83 831.24,-567.27 877,-540 946.42,-498.64 961.94,-472.49 988,-396 994.76,-376.16 993.8,-352.36 991.39,-334.37"/>
<polygon fill="grey" stroke="grey" stroke-width="2" points="994.82,-333.6 989.82,-324.26 987.9,-334.68 994.82,-333.6"/>
</g>
<!-- 6&#45;&gt;4 -->
<g id="edge12" class="edge">
<title>6&#45;&gt;4</title>
<path fill="none" stroke="grey" stroke-width="2" d="M630,-503.7C630,-495.98 630,-486.71 630,-478.11"/>
<polygon fill="grey" stroke="grey" stroke-width="2" points="633.5,-478.1 630,-468.1 626.5,-478.1 633.5,-478.1"/>
</g>
<!-- 7 -->
<g id="node8" class="node">
<title>7</title>
<path fill="none" stroke="#56a9d8" stroke-width="2" d="M856,-540C856,-540 782,-540 782,-540 776,-540 770,-534 770,-528 770,-528 770,-516 770,-516 770,-510 776,-504 782,-504 782,-504 856,-504 856,-504 862,-504 868,-510 868,-516 868,-516 868,-528 868,-528 868,-534 862,-540 856,-540"/>
<text text-anchor="middle" x="819" y="-519.5" font-family="sans" font-size="10.00">flash_paired_ends</text>
</g>
<!-- 7&#45;&gt;4 -->
<g id="edge13" class="edge">
<title>7&#45;&gt;4</title>
<path fill="none" stroke="grey" stroke-width="2" d="M772.77,-503.88C746.47,-494.14 713.36,-481.87 685.64,-471.61"/>
<polygon fill="grey" stroke="grey" stroke-width="2" points="686.68,-468.26 676.08,-468.07 684.25,-474.82 686.68,-468.26"/>
</g>
<!-- 14 -->
<g id="node15" class="node">
<title>14</title>
<path fill="none" stroke="#56d8c9" stroke-width="2" d="M932.5,-252C932.5,-252 843.5,-252 843.5,-252 837.5,-252 831.5,-246 831.5,-240 831.5,-240 831.5,-228 831.5,-228 831.5,-222 837.5,-216 843.5,-216 843.5,-216 932.5,-216 932.5,-216 938.5,-216 944.5,-222 944.5,-228 944.5,-228 944.5,-240 944.5,-240 944.5,-246 938.5,-252 932.5,-252"/>
<text text-anchor="middle" x="888" y="-231.5" font-family="sans" font-size="10.00">map_to_target_fastas</text>
</g>
<!-- 7&#45;&gt;14 -->
<g id="edge24" class="edge">
<title>7&#45;&gt;14</title>
<path fill="none" stroke="grey" stroke-width="2" d="M823.11,-503.97C834.64,-456.19 867.34,-320.62 881.42,-262.27"/>
<polygon fill="grey" stroke="grey" stroke-width="2" points="884.88,-262.85 883.82,-252.31 878.08,-261.21 884.88,-262.85"/>
</g>
<!-- 8 -->
<g id="node9" class="node">
<title>8</title>
<path fill="none" stroke="#56d8a2" stroke-width="2" d="M479.5,-180C479.5,-180 252.5,-180 252.5,-180 246.5,-180 240.5,-174 240.5,-168 240.5,-168 240.5,-156 240.5,-156 240.5,-150 246.5,-144 252.5,-144 252.5,-144 479.5,-144 479.5,-144 485.5,-144 491.5,-150 491.5,-156 491.5,-156 491.5,-168 491.5,-168 491.5,-174 485.5,-180 479.5,-180"/>
<text text-anchor="middle" x="366" y="-159.5" font-family="sans" font-size="10.00">combine_fullgex_remapped_idxstats_into_single_file</text>
</g>
<!-- 8&#45;&gt;1 -->
<g id="edge9" class="edge">
<title>8&#45;&gt;1</title>
<path fill="none" stroke="grey" stroke-width="2" d="M414.18,-143.97C441.85,-134.19 476.78,-121.84 505.95,-111.52"/>
<polygon fill="grey" stroke="grey" stroke-width="2" points="507.34,-114.74 515.6,-108.11 505.01,-108.14 507.34,-114.74"/>
</g>
<!-- 9 -->
<g id="node10" class="node">
<title>9</title>
<path fill="none" stroke="#d86e56" stroke-width="2" d="M457,-252C457,-252 275,-252 275,-252 269,-252 263,-246 263,-240 263,-240 263,-228 263,-228 263,-222 269,-216 275,-216 275,-216 457,-216 457,-216 463,-216 469,-222 469,-228 469,-228 469,-240 469,-240 469,-246 463,-252 457,-252"/>
<text text-anchor="middle" x="366" y="-231.5" font-family="sans" font-size="10.00">map_fullg_extracted_to_thinned_genomes</text>
</g>
<!-- 9&#45;&gt;8 -->
<g id="edge16" class="edge">
<title>9&#45;&gt;8</title>
<path fill="none" stroke="grey" stroke-width="2" d="M366,-215.7C366,-207.98 366,-198.71 366,-190.11"/>
<polygon fill="grey" stroke="grey" stroke-width="2" points="369.5,-190.1 366,-180.1 362.5,-190.1 369.5,-190.1"/>
</g>
<!-- 18 -->
<g id="node19" class="node">
<title>18</title>
<path fill="none" stroke="#5692d8" stroke-width="2" d="M210,-180C210,-180 12,-180 12,-180 6,-180 0,-174 0,-168 0,-168 0,-156 0,-156 0,-150 6,-144 12,-144 12,-144 210,-144 210,-144 216,-144 222,-150 222,-156 222,-156 222,-168 222,-168 222,-174 216,-180 210,-180"/>
<text text-anchor="middle" x="111" y="-159.5" font-family="sans" font-size="10.00">call_fullgex_remapped_markers_with_bcftools</text>
</g>
<!-- 9&#45;&gt;18 -->
<g id="edge29" class="edge">
<title>9&#45;&gt;18</title>
<path fill="none" stroke="grey" stroke-width="2" d="M303.95,-215.97C267.54,-205.97 221.37,-193.3 183.32,-182.85"/>
<polygon fill="grey" stroke="grey" stroke-width="2" points="183.9,-179.38 173.33,-180.11 182.05,-186.13 183.9,-179.38"/>
</g>
<!-- 20 -->
<g id="node21" class="node">
<title>20</title>
<path fill="none" stroke="#d8d356" stroke-width="2" d="M714,-180C714,-180 560,-180 560,-180 554,-180 548,-174 548,-168 548,-168 548,-156 548,-156 548,-150 554,-144 560,-144 560,-144 714,-144 714,-144 720,-144 726,-150 726,-156 726,-156 726,-168 726,-168 726,-174 720,-180 714,-180"/>
<text text-anchor="middle" x="637" y="-159.5" font-family="sans" font-size="10.00">microhap_extract_fullgex_remapped</text>
</g>
<!-- 9&#45;&gt;20 -->
<g id="edge32" class="edge">
<title>9&#45;&gt;20</title>
<path fill="none" stroke="grey" stroke-width="2" d="M431.95,-215.97C470.88,-205.91 520.33,-193.14 560.91,-182.65"/>
<polygon fill="grey" stroke="grey" stroke-width="2" points="561.95,-186 570.76,-180.11 560.2,-179.22 561.95,-186"/>
</g>
<!-- 10&#45;&gt;9 -->
<g id="edge18" class="edge">
<title>10&#45;&gt;9</title>
<path fill="none" stroke="grey" stroke-width="2" d="M375.2,-431.85C373.47,-394.83 369.37,-307.18 367.28,-262.39"/>
<polygon fill="grey" stroke="grey" stroke-width="2" points="370.77,-262.06 366.81,-252.23 363.78,-262.38 370.77,-262.06"/>
</g>
<!-- 10&#45;&gt;18 -->
<g id="edge30" class="edge">
<title>10&#45;&gt;18</title>
<path fill="none" stroke="grey" stroke-width="2" d="M360.22,-431.97C315.31,-383.5 186.67,-244.67 133.95,-187.77"/>
<polygon fill="grey" stroke="grey" stroke-width="2" points="136.4,-185.26 127.04,-180.31 131.27,-190.02 136.4,-185.26"/>
</g>
<!-- 11&#45;&gt;10 -->
<g id="edge20" class="edge">
<title>11&#45;&gt;10</title>
<path fill="none" stroke="grey" stroke-width="2" d="M405.36,-503.7C400.87,-495.64 395.44,-485.89 390.48,-476.98"/>
<polygon fill="grey" stroke="grey" stroke-width="2" points="393.45,-475.14 385.53,-468.1 387.34,-478.54 393.45,-475.14"/>
</g>
<!-- 12&#45;&gt;9 -->
<g id="edge17" class="edge">
<title>12&#45;&gt;9</title>
<path fill="none" stroke="grey" stroke-width="2" d="M465.71,-287.88C448.13,-278.55 426.19,-266.92 407.37,-256.94"/>
<polygon fill="grey" stroke="grey" stroke-width="2" points="408.89,-253.78 398.41,-252.19 405.61,-259.97 408.89,-253.78"/>
</g>
<!-- 13 -->
<g id="node14" class="node">
<title>13</title>
<path fill="none" stroke="#9fd856" stroke-width="2" d="M956,-180C956,-180 756,-180 756,-180 750,-180 744,-174 744,-168 744,-168 744,-156 744,-156 744,-150 750,-144 756,-144 756,-144 956,-144 956,-144 962,-144 968,-150 968,-156 968,-156 968,-168 968,-168 968,-174 962,-180 956,-180"/>
<text text-anchor="middle" x="856" y="-159.5" font-family="sans" font-size="10.00">combine_target_fasta_idxstats_into_single_file</text>
</g>
<!-- 13&#45;&gt;1 -->
<g id="edge7" class="edge">
<title>13&#45;&gt;1</title>
<path fill="none" stroke="grey" stroke-width="2" d="M784.94,-143.97C736.5,-132.35 672.96,-117.12 626.46,-105.97"/>
<polygon fill="grey" stroke="grey" stroke-width="2" points="627.05,-102.52 616.51,-103.59 625.42,-109.32 627.05,-102.52"/>
</g>
<!-- 14&#45;&gt;13 -->
<g id="edge23" class="edge">
<title>14&#45;&gt;13</title>
<path fill="none" stroke="grey" stroke-width="2" d="M880.09,-215.7C876.45,-207.73 872.05,-198.1 868.01,-189.26"/>
<polygon fill="grey" stroke="grey" stroke-width="2" points="871.16,-187.74 863.82,-180.1 864.79,-190.65 871.16,-187.74"/>
</g>
<!-- 19 -->
<g id="node20" class="node">
<title>19</title>
<path fill="none" stroke="#5682d8" stroke-width="2" d="M1104,-108C1104,-108 914,-108 914,-108 908,-108 902,-102 902,-96 902,-96 902,-84 902,-84 902,-78 908,-72 914,-72 914,-72 1104,-72 1104,-72 1110,-72 1116,-78 1116,-84 1116,-84 1116,-96 1116,-96 1116,-102 1110,-108 1104,-108"/>
<text text-anchor="middle" x="1009" y="-87.5" font-family="sans" font-size="10.00">call_target_fasta_marker_sets_with_bcftools</text>
</g>
<!-- 14&#45;&gt;19 -->
<g id="edge31" class="edge">
<title>14&#45;&gt;19</title>
<path fill="none" stroke="grey" stroke-width="2" d="M944.79,-229.84C1014.65,-224.63 1127.2,-211.48 1153,-180 1163.14,-167.63 1162.15,-157.12 1153,-144 1143.41,-130.25 1129.83,-120.06 1114.8,-112.5"/>
<polygon fill="grey" stroke="grey" stroke-width="2" points="1115.83,-109.12 1105.28,-108.13 1112.91,-115.48 1115.83,-109.12"/>
</g>
<!-- 22 -->
<g id="node23" class="node">
<title>22</title>
<path fill="none" stroke="#56d0d8" stroke-width="2" d="M1131.5,-180C1131.5,-180 998.5,-180 998.5,-180 992.5,-180 986.5,-174 986.5,-168 986.5,-168 986.5,-156 986.5,-156 986.5,-150 992.5,-144 998.5,-144 998.5,-144 1131.5,-144 1131.5,-144 1137.5,-144 1143.5,-150 1143.5,-156 1143.5,-156 1143.5,-168 1143.5,-168 1143.5,-174 1137.5,-180 1131.5,-180"/>
<text text-anchor="middle" x="1065" y="-159.5" font-family="sans" font-size="10.00">microhap_extract_target_fastas</text>
</g>
<!-- 14&#45;&gt;22 -->
<g id="edge34" class="edge">
<title>14&#45;&gt;22</title>
<path fill="none" stroke="grey" stroke-width="2" d="M931.3,-215.88C955.71,-206.22 986.4,-194.09 1012.21,-183.88"/>
<polygon fill="grey" stroke="grey" stroke-width="2" points="1013.83,-187 1021.84,-180.07 1011.26,-180.49 1013.83,-187"/>
</g>
<!-- 15 -->
<g id="node16" class="node">
<title>15</title>
<path fill="none" stroke="#56d88a" stroke-width="2" d="M807,-324C807,-324 711,-324 711,-324 705,-324 699,-318 699,-312 699,-312 699,-300 699,-300 699,-294 705,-288 711,-288 711,-288 807,-288 807,-288 813,-288 819,-294 819,-300 819,-300 819,-312 819,-312 819,-318 813,-324 807,-324"/>
<text text-anchor="middle" x="759" y="-303.5" font-family="sans" font-size="10.00">bwt_index_target_fasta</text>
</g>
<!-- 15&#45;&gt;14 -->
<g id="edge25" class="edge">
<title>15&#45;&gt;14</title>
<path fill="none" stroke="grey" stroke-width="2" d="M790.56,-287.88C807.66,-278.6 828.98,-267.03 847.32,-257.08"/>
<polygon fill="grey" stroke="grey" stroke-width="2" points="849.2,-260.04 856.32,-252.19 845.86,-253.88 849.2,-260.04"/>
</g>
<!-- 16&#45;&gt;0 -->
<g id="edge1" class="edge">
<title>16&#45;&gt;0</title>
<path fill="none" stroke="grey" stroke-width="2" d="M1033.27,-287.96C1077.65,-269.12 1141.35,-234.09 1170,-180 1194.34,-134.05 1168.77,-100.08 1125,-72 1063.61,-32.62 841.28,-22.36 752.25,-19.81"/>
<polygon fill="grey" stroke="grey" stroke-width="2" points="752.16,-16.3 742.07,-19.53 751.97,-23.3 752.16,-16.3"/>
</g>
<!-- 17 -->
<g id="node18" class="node">
<title>17</title>
<path fill="none" stroke="#b6d856" stroke-width="2" d="M966.5,-396C966.5,-396 887.5,-396 887.5,-396 881.5,-396 875.5,-390 875.5,-384 875.5,-384 875.5,-372 875.5,-372 875.5,-366 881.5,-360 887.5,-360 887.5,-360 966.5,-360 966.5,-360 972.5,-360 978.5,-366 978.5,-372 978.5,-372 978.5,-384 978.5,-384 978.5,-390 972.5,-396 966.5,-396"/>
<text text-anchor="middle" x="927" y="-375.5" font-family="sans" font-size="10.00">region_bedfiles_full</text>
</g>
<!-- 17&#45;&gt;16 -->
<g id="edge28" class="edge">
<title>17&#45;&gt;16</title>
<path fill="none" stroke="grey" stroke-width="2" d="M941.58,-359.7C948.66,-351.3 957.28,-341.07 965.05,-331.86"/>
<polygon fill="grey" stroke="grey" stroke-width="2" points="967.81,-334.01 971.58,-324.1 962.46,-329.49 967.81,-334.01"/>
</g>
<!-- 18&#45;&gt;0 -->
<g id="edge4" class="edge">
<title>18&#45;&gt;0</title>
<path fill="none" stroke="grey" stroke-width="2" d="M183.56,-143.94C313.15,-113.48 579.97,-50.74 677.91,-27.72"/>
<polygon fill="grey" stroke="grey" stroke-width="2" points="678.99,-31.06 687.92,-25.37 677.39,-24.25 678.99,-31.06"/>
</g>
<!-- 19&#45;&gt;0 -->
<g id="edge5" class="edge">
<title>19&#45;&gt;0</title>
<path fill="none" stroke="grey" stroke-width="2" d="M937.46,-71.97C878.99,-58.04 798.67,-38.92 752.26,-27.87"/>
<polygon fill="grey" stroke="grey" stroke-width="2" points="752.87,-24.42 742.33,-25.51 751.25,-31.23 752.87,-24.42"/>
</g>
<!-- 20&#45;&gt;0 -->
<g id="edge6" class="edge">
<title>20&#45;&gt;0</title>
<path fill="none" stroke="grey" stroke-width="2" d="M646.41,-143.87C659.88,-119.35 684.77,-74.03 700.58,-45.26"/>
<polygon fill="grey" stroke="grey" stroke-width="2" points="703.81,-46.64 705.56,-36.19 697.68,-43.27 703.81,-46.64"/>
</g>
<!-- 21 -->
<g id="node22" class="node">
<title>21</title>
<path fill="none" stroke="#56d863" stroke-width="2" d="M801,-252C801,-252 707,-252 707,-252 701,-252 695,-246 695,-240 695,-240 695,-228 695,-228 695,-222 701,-216 707,-216 707,-216 801,-216 801,-216 807,-216 813,-222 813,-228 813,-228 813,-240 813,-240 813,-246 807,-252 801,-252"/>
<text text-anchor="middle" x="754" y="-231.5" font-family="sans" font-size="10.00">make_microhap_folder</text>
</g>
<!-- 21&#45;&gt;20 -->
<g id="edge33" class="edge">
<title>21&#45;&gt;20</title>
<path fill="none" stroke="grey" stroke-width="2" d="M725.38,-215.88C710.08,-206.72 691.06,-195.34 674.58,-185.48"/>
<polygon fill="grey" stroke="grey" stroke-width="2" points="676.11,-182.32 665.73,-180.19 672.52,-188.33 676.11,-182.32"/>
</g>
<!-- 21&#45;&gt;22 -->
<g id="edge35" class="edge">
<title>21&#45;&gt;22</title>
<path fill="none" stroke="grey" stroke-width="2" d="M813.07,-218.34C816.43,-217.54 819.76,-216.75 823,-216 873.74,-204.2 930.63,-191.7 976.5,-181.81"/>
<polygon fill="grey" stroke="grey" stroke-width="2" points="977.37,-185.2 986.41,-179.67 975.9,-178.35 977.37,-185.2"/>
</g>
<!-- 22&#45;&gt;0 -->
<g id="edge3" class="edge">
<title>22&#45;&gt;0</title>
<path fill="none" stroke="grey" stroke-width="2" d="M1000.82,-143.95C968.1,-134.57 927.95,-122.01 893,-108 842.37,-87.7 786.48,-58.59 751.08,-39.25"/>
<polygon fill="grey" stroke="grey" stroke-width="2" points="752.55,-36.07 742.1,-34.32 749.18,-42.2 752.55,-36.07"/>
</g>
</g>
</svg>
